# WaveFront *.obj file (generated by Cinema 4D)

mtllib ./Rock_2.mtl

v -0.229783 0.887569 -0.009657
v -0.441704 0.790772 0.656150
v -0.275431 0.759925 0.294311
v 0.261135 0.362256 0.464619
v 0.021335 0.846690 0.316947
v 0.429428 -0.057633 -0.483933
v 0.318101 0.759925 0.294311
v -0.373957 0.403135 -0.483933
v 0.021335 -0.004567 1.000000
v -0.563515 -0.004567 0.780917
v 0.021335 1.000000 0.780917
v 0.839778 -0.433083 0.656478
v 0.285254 0.426801 -0.009657
v 0.820078 -0.538466 -0.009657
v 0.551239 0.151595 -0.009657
v 0.821505 -0.538466 -0.608700
v 0.263155 0.340036 -0.313625
v 0.021335 -0.433083 -1.000000
v 0.007529 0.393044 -0.670920
v -0.676041 -0.394531 -0.839048
v -0.033612 0.561704 -0.336261
v -0.941145 -0.433083 0.161320
v -0.495768 0.612363 -0.009657
v -0.207683 0.800804 -0.313625
v -0.033612 0.653891 -0.009657
v -1.000000 -0.394531 -0.223415
v -0.523262 0.467214 0.739687
v -0.523262 -0.904863 0.548156
v 0.072762 0.502344 0.548156
v -0.253331 0.930860 0.739687
v 0.838423 -0.904863 0.615248
v 0.576285 0.038698 0.615248
v -0.989623 -1.000000 -0.227502
v -0.887475 -0.980782 0.161320
v 0.510986 0.082455 -0.290989
v 0.342693 0.502344 0.271675
v 0.781252 -0.904863 -0.567470
v 0.565933 -0.066686 -0.567470
v -0.836961 -0.942822 0.465287
v -0.887475 -0.433083 0.487923
v -0.199390 0.364783 -0.629691
v 0.241055 0.082455 -0.567470
v -0.675925 -0.962041 -0.824541
v -0.483126 0.134427 -0.540747
v -0.836961 0.076657 0.465287
v -0.887475 0.114617 0.161320
v -0.523262 0.502344 0.271675
v -0.455515 0.543223 -0.290989
v -0.796825 0.172386 -0.115925
v 0.555520 -0.433083 -0.772810
v -0.275431 0.505173 0.893288
v 0.021335 0.543132 0.945027
v 0.328453 0.076657 0.768849
v 0.573793 -0.433083 0.820588
v 0.590591 -0.942822 0.768849
v 0.021335 -0.980782 0.753496
v -0.275431 -0.942822 0.701757
v -0.297531 -0.004567 0.945027
v 0.726247 0.076657 0.361403
v 0.766408 0.009233 -0.009657
v 0.715894 -0.028727 -0.313625
v 0.981727 -0.538466 -0.336261
v 0.931214 -0.942822 -0.313625
v 0.766408 -0.980782 -0.009657
v 0.988384 -0.942822 0.361403
v 1.000000 -0.433083 0.384039
v 0.318101 0.076657 -0.721071
v 0.007529 -0.063824 -0.835031
v -0.289237 -0.101783 -0.783292
v -0.297531 -0.433083 -0.945027
v -0.275431 -0.942822 -0.893288
v 0.021335 -0.980782 -0.945027
v 0.533421 -0.942822 -0.721071
# 73 vertices

vn -0.496100 0.496100 0.712580
vn -0.347356 0.511868 0.785707
vn -0.353226 0.353226 0.866293
vn -0.587454 0.296259 0.753079
vn -0.188983 0.513446 0.837053
vn -0.182804 0.347863 0.919551
vn -0.356069 -0.106857 0.928330
vn -0.550432 -0.079128 0.831122
vn -0.092477 -0.186557 0.978082
vn 0.509244 0.694867 0.507770
vn 0.481722 0.726416 0.490167
vn 0.606470 0.591957 0.530830
vn 0.716306 0.582590 0.384051
vn 0.676878 0.266789 0.686046
vn 0.426558 0.115522 0.897053
vn 0.865962 0.492881 0.084728
vn 0.824551 0.528216 0.202741
vn 0.522172 0.340425 0.781951
vn -0.232929 0.967725 -0.096188
vn 0.391139 0.915805 -0.091168
vn 0.357069 0.910922 -0.206693
vn 0.095702 0.963763 -0.249001
vn -0.274286 0.935447 -0.222951
vn -0.131961 0.970243 -0.203017
vn 0.704452 -0.101107 0.702513
vn 0.303340 -0.225897 0.925719
vn -0.148436 -0.389456 0.909005
vn -0.564835 0.824969 0.019700
vn -0.555086 0.831654 -0.015183
vn -0.521870 0.852642 -0.025547
vn -0.403719 -0.374294 0.834814
vn -0.336924 -0.405055 0.849948
vn -0.586848 0.802643 -0.106650
vn 0.630684 0.751916 0.191989
vn 0.644556 0.754456 0.123869
vn 0.513777 0.837672 -0.185306
vn 0.684981 0.721871 -0.098507
vn 0.640117 0.647024 0.414259
vn 0.936543 0.291803 -0.194263
vn 0.913185 0.191645 -0.359674
vn 0.305363 0.929427 -0.207170
vn 0.424565 0.850460 -0.310583
vn 0.538916 0.819189 -0.196210
vn 0.369789 0.883229 -0.288379
vn 0.597222 0.604687 -0.526954
vn 0.805860 0.573986 -0.145357
vn 0.485012 0.792421 -0.369908
vn 0.471336 0.838283 -0.274088
vn 0.679450 -0.230826 -0.696467
vn 0.826922 -0.238055 -0.509441
vn 0.873909 -0.164196 0.457519
vn 0.769213 0.554629 0.317330
vn 0.737816 0.446448 0.506272
vn 0.852186 -0.075835 0.517715
vn 0.881278 -0.085269 -0.464842
vn 0.253087 0.946948 0.198081
vn 0.465094 0.754361 -0.463279
vn 0.240215 0.776672 -0.582304
vn 0.076296 0.614048 -0.785572
vn 0.398603 0.608865 -0.685856
vn 0.459837 0.180627 -0.869439
vn 0.095506 0.209501 -0.973133
vn -0.512474 0.623396 -0.590549
vn -0.496702 0.638463 -0.587923
vn -0.259777 0.599926 -0.756707
vn -0.235949 0.699180 -0.674889
vn -0.437946 0.697575 -0.567091
vn -0.183034 0.654535 -0.733541
vn 0.489218 0.820024 -0.297030
vn 0.437865 0.856855 -0.272165
vn -0.214152 -0.107704 -0.970844
vn -0.192397 -0.139134 -0.971403
vn 0.112056 -0.175902 -0.978009
vn 0.440428 -0.189359 -0.877591
vn -0.557077 0.747684 -0.361434
vn -0.728140 0.623589 -0.284515
vn -0.818927 0.572543 0.039408
vn -0.936190 0.341934 -0.081418
vn -0.988020 0.070876 0.137085
vn -0.731199 0.681482 0.030504
vn -0.646872 0.757390 0.088981
vn -0.849071 -0.033545 0.527212
vn -0.880269 0.186198 0.436414
vn -0.044309 0.923676 -0.380605
vn -0.358147 -0.374670 0.855192
vn -0.970543 -0.170361 0.170361
vn -0.973119 -0.132369 0.188464
vn -0.880077 -0.020589 -0.474384
vn -0.973964 -0.094140 0.206231
vn 0.006438 -0.999888 0.013525
vn 0.076796 -0.993705 0.081565
vn -0.001471 -0.999975 -0.006911
vn 0.002571 -0.999964 -0.008083
vn 0.008621 -0.999645 -0.025219
vn 0.006604 -0.999935 -0.009251
vn 0.007856 -0.999253 -0.037841
vn 0.113033 -0.989519 0.089866
vn 0.076330 -0.992397 -0.096554
vn 0.118728 -0.987323 -0.105338
vn 0.215105 -0.952607 -0.215105
vn 0.215105 -0.952607 0.215105
vn 0.023709 -0.999403 -0.025131
# 102 normals

vt 0.156250 0.843750 0.000000
vt 0.312500 0.937500 0.000000
vt 0.281250 0.718750 0.000000
vt 0.062500 0.687500 0.000000
vt 0.500000 0.968750 0.000000
vt 0.500000 0.734375 0.000000
vt 0.265625 0.500000 0.000000
vt 0.031250 0.500000 0.000000
vt 0.500000 0.500000 0.000000
vt 0.843750 0.843750 0.000000
vt 0.937500 0.687500 0.000000
vt 0.718750 0.718750 0.000000
vt 0.687500 0.937500 0.000000
vt 0.968750 0.500000 0.000000
vt 0.734375 0.500000 0.000000
vt 0.281250 0.281250 0.000000
vt 0.500000 0.265625 0.000000
vt 0.312500 0.062500 0.000000
vt 0.500000 0.031250 0.000000
vt 0.937500 0.312500 0.000000
vt 0.718750 0.281250 0.000000
vt 0.062500 0.312500 0.000000
vt 0.156250 0.156250 0.000000
vt 0.687500 0.062500 0.000000
vt 0.843750 0.156250 0.000000
# 25 texture coordinates

o Rock_2
usemtl default
f 27/4/4 51/3/3 30/2/2 2/1/1
f 51/3/3 52/6/6 11/5/5 30/2/2
f 10/8/8 58/7/7 51/3/3 27/4/4
f 58/7/7 9/9/9 52/6/6 51/3/3
f 29/13/13 53/12/12 32/11/11 4/10/10
f 53/12/12 54/15/15 12/14/14 32/11/11
f 11/5/17 52/6/16 53/12/12 29/13/13
f 52/6/18 9/9/18 54/15/15 53/12/12
f 5/17/22 25/9/21 1/7/20 3/16/19
f 11/19/24 5/17/22 3/16/19 30/18/23
f 12/14/14 54/15/15 55/21/26 31/20/25
f 54/15/15 9/9/9 56/17/27 55/21/26
f 3/16/19 1/7/30 23/8/29 47/22/28
f 57/16/32 58/7/7 10/8/8 28/22/31
f 30/18/23 3/16/19 47/22/28 2/23/33
f 56/17/27 9/9/9 58/7/7 57/16/32
f 32/4/11 59/3/35 36/2/34 4/1/10
f 59/3/35 60/6/37 15/5/36 36/2/34
f 12/8/14 66/7/38 59/3/35 32/4/11
f 66/7/40 14/9/39 60/6/37 59/3/35
f 35/13/44 61/12/43 38/11/42 6/10/41
f 61/12/43 62/15/46 16/14/45 38/11/42
f 15/5/36 60/6/37 61/12/43 35/13/44
f 60/6/37 14/9/39 62/15/46 61/12/43
f 13/15/48 25/9/21 5/17/22 7/21/47
f 15/14/36 13/15/48 7/21/47 36/20/34
f 16/14/49 62/15/50 63/21/50 37/20/49
f 62/15/51 14/9/51 64/17/51 63/21/51
f 7/21/53 5/17/52 11/19/17 29/24/13
f 65/16/54 66/7/54 12/8/14 31/22/25
f 36/20/34 7/21/53 29/24/13 4/25/10
f 64/17/55 14/9/39 66/7/40 65/16/55
f 38/4/42 67/3/56 42/2/56 6/1/41
f 67/3/60 68/6/59 19/5/58 42/2/57
f 16/8/45 50/7/61 67/3/60 38/4/42
f 50/7/61 18/9/62 68/6/59 67/3/60
f 41/13/66 69/12/65 44/11/64 8/10/63
f 69/12/65 70/15/68 20/14/67 44/11/64
f 19/5/58 68/6/59 69/12/65 41/13/66
f 68/6/59 18/9/62 70/15/68 69/12/65
f 21/6/70 25/9/21 13/15/48 17/12/69
f 19/5/58 21/6/70 17/12/69 42/13/57
f 20/14/71 70/15/72 71/21/72 43/20/71
f 70/15/72 18/9/62 72/17/73 71/21/72
f 17/12/69 13/15/48 15/14/36 35/11/44
f 73/16/74 50/7/61 16/8/49 37/22/49
f 42/13/57 17/12/69 35/11/44 6/10/41
f 72/17/73 18/9/62 50/7/61 73/16/74
f 44/4/64 49/3/76 48/2/75 8/1/63
f 49/3/76 46/6/77 23/5/29 48/2/75
f 20/8/67 26/7/78 49/3/76 44/4/64
f 26/7/78 22/9/79 46/6/77 49/3/76
f 47/13/28 45/12/81 27/11/80 2/10/33
f 45/12/83 40/15/82 10/14/8 27/11/4
f 23/5/29 46/6/77 45/12/81 47/13/28
f 46/6/77 22/9/79 40/15/82 45/12/83
f 1/7/20 25/9/21 21/6/70 24/3/84
f 23/8/29 1/7/30 24/3/84 48/4/75
f 10/14/8 40/15/82 39/21/85 28/20/31
f 40/15/82 22/9/79 34/17/87 39/21/86
f 24/3/84 21/6/70 19/5/58 41/2/66
f 33/16/88 26/7/88 20/8/88 43/22/88
f 48/4/75 24/3/84 41/2/66 8/1/63
f 34/17/87 22/9/79 26/7/78 33/16/89
f 43/20/102 71/21/94 72/17/95 73/16/99 37/20/100 63/21/98 64/17/92 65/16/91 31/20/101 55/21/97 56/17/96 57/16/32 28/20/31 39/21/85 34/17/93 33/16/94

