# WaveFront *.obj file (generated by Cinema 4D)

mtllib ./Rock_1.mtl

v 0.068326 0.982554 0.355560
v -0.535312 -0.349157 0.683811
v 0.453285 0.586774 0.431728
v 0.463892 -0.061706 0.779545
v 0.574236 0.769824 -0.183291
v 0.522179 0.055064 -0.637560
v 0.551882 0.667465 -0.544729
v -0.655837 0.249496 -0.590873
v -0.004468 -1.000000 1.000000
v -0.596039 -1.000000 0.739495
v -0.089251 0.569861 0.679508
v 0.587103 -1.000000 0.739495
v -0.029900 0.909024 -0.415280
v 1.000000 -1.000000 0.027194
v 0.843277 0.445153 -0.183291
v 0.587103 -1.000000 -0.685108
v -0.178673 -0.291872 -1.000000
v -0.004468 -1.000000 -0.945613
v -0.178673 0.247114 -0.804862
v -0.596039 -1.000000 -0.685108
v -0.487653 0.718643 -0.388365
v -1.000000 -1.000000 0.027194
v -0.539673 0.185129 0.027194
v -0.945713 -1.000000 -0.361160
v 0.068326 1.000000 0.112515
v -0.326998 -1.000000 -0.880246
v -0.555324 -0.443421 0.690471
v -0.945713 -1.000000 0.415547
v 0.273355 0.194873 0.733568
v -0.429557 0.200842 0.723156
v 0.362799 -0.531086 -0.985166
v 0.546387 -0.443421 0.878876
v 0.945713 -1.000000 0.415547
v -0.838253 -0.398639 0.388632
v 0.802561 0.363585 -0.517814
v 0.703964 0.191584 0.550121
v 0.945713 -1.000000 -0.361160
v 0.604675 -0.326651 -0.736892
v -0.487653 -0.087437 -0.872846
v -0.889347 -0.353857 0.027194
v -0.465299 0.414764 -0.690204
v 0.340446 -0.028885 -0.802525
v 0.796670 -0.226637 -0.544729
v -0.738332 -0.132219 -0.690204
v -0.838253 -0.398639 -0.334244
v 0.318062 -1.000000 -0.880246
v -0.561441 -0.183890 0.454388
v -0.498958 0.103562 -0.307329
v 0.847764 -0.181855 -0.183291
v 0.698072 -0.398639 0.577037
v -0.304645 -0.398639 0.873112
v -0.004468 -0.262545 0.789325
v 0.295708 -0.307328 0.727804
v 0.318062 -1.000000 0.934634
v -0.326998 -1.000000 0.934634
v -0.411781 0.803221 0.112515
v -0.451911 0.504721 0.421316
# 57 vertices

vn -0.694908 0.431191 0.575480
vn -0.266666 0.233284 0.935130
vn -0.269556 0.248952 0.930249
vn -0.555716 0.339703 0.758802
vn -0.001822 0.528349 0.849025
vn 0.061983 0.300550 0.951750
vn -0.272332 0.264333 0.925183
vn -0.563728 0.214519 0.797617
vn 0.077305 0.380223 0.921659
vn -0.309635 0.093083 0.946289
vn -0.115809 0.097178 0.988506
vn -0.002359 0.196089 0.980583
vn 0.067548 0.421786 0.904176
vn 0.082577 0.097448 0.991809
vn 0.126090 0.270777 0.954349
vn -0.322192 0.866943 0.380266
vn -0.251264 0.960861 0.116670
vn 0.006941 0.997525 0.069976
vn -0.008337 0.897089 0.441771
vn -0.349394 0.811832 0.467818
vn -0.752649 0.585121 0.301915
vn -0.811967 0.580939 0.056735
vn -0.958788 0.278622 0.055634
vn -0.928199 0.326576 0.178312
vn -0.910745 0.314877 0.267200
vn 0.358493 0.796099 0.487555
vn 0.399657 0.916106 0.032008
vn 0.684797 0.488242 0.540993
vn 0.526462 0.848992 0.045284
vn 0.488040 0.472188 0.734068
vn 0.846085 0.211769 0.489178
vn 0.698686 0.154794 0.698482
vn 0.999338 0.004911 0.036046
vn 0.978103 0.205070 0.035522
vn 0.820726 0.285486 0.494880
vn 0.711464 0.051978 0.700797
vn 0.916535 0.398547 0.033536
vn 0.403759 0.318386 -0.857677
vn 0.534620 0.108976 -0.838036
vn 0.510448 0.078521 -0.856316
vn 0.380704 0.221739 -0.897717
vn 0.609340 -0.169887 -0.774495
vn 0.616840 -0.099047 -0.780832
vn 0.987553 0.003501 -0.157245
vn 0.975228 0.147036 -0.165261
vn 0.942599 0.287510 -0.169838
vn 0.343551 0.922776 -0.174521
vn -0.023775 0.897033 -0.441324
vn 0.261469 0.463974 -0.846382
vn 0.231081 0.409498 -0.882560
vn -0.008731 0.611047 -0.791546
vn -0.817348 0.302733 0.490199
vn -0.679650 0.571626 0.459695
vn 0.513446 0.837053 -0.188983
vn -0.793907 0.607451 0.026733
vn -0.164433 0.918811 -0.358816
vn -0.825211 0.558757 0.082566
vn -0.926379 0.365674 0.090028
vn 0.289838 0.514853 -0.806796
vn 0.006088 0.520949 -0.853566
vn 0.337681 -0.235364 -0.911359
vn -0.111289 -0.185225 -0.976374
vn -0.496100 0.496100 -0.712580
vn -0.627820 0.107444 -0.770907
vn -0.375967 0.185701 -0.907835
vn -0.250819 0.612725 -0.749439
vn -0.653908 -0.097573 -0.750256
vn -0.388289 -0.164383 -0.906758
vn -0.792514 0.561979 0.236857
vn -0.851703 0.500741 0.154469
vn -0.854483 0.484898 -0.186365
vn -0.941844 0.336051 0.000000
vn -0.894628 0.162196 -0.416334
vn -0.722198 0.615326 0.315920
vn 0.000000 -1.000000 0.000000
# 75 normals

vt 0.156250 0.843750 0.000000
vt 0.312500 0.937500 0.000000
vt 0.281250 0.718750 0.000000
vt 0.062500 0.687500 0.000000
vt 0.500000 0.968750 0.000000
vt 0.500000 0.734375 0.000000
vt 0.265625 0.500000 0.000000
vt 0.031250 0.500000 0.000000
vt 0.500000 0.500000 0.000000
vt 0.843750 0.843750 0.000000
vt 0.937500 0.687500 0.000000
vt 0.718750 0.718750 0.000000
vt 0.687500 0.937500 0.000000
vt 0.968750 0.500000 0.000000
vt 0.734375 0.500000 0.000000
vt 0.281250 0.281250 0.000000
vt 0.500000 0.265625 0.000000
vt 0.312500 0.062500 0.000000
vt 0.500000 0.031250 0.000000
vt 0.062500 0.312500 0.000000
vt 0.156250 0.156250 0.000000
vt 0.718750 0.281250 0.000000
vt 0.937500 0.312500 0.000000
vt 0.687500 0.062500 0.000000
vt 0.843750 0.156250 0.000000
# 25 texture coordinates

o Rock
usemtl default
f 27/4/4 51/3/3 30/2/2 2/1/1
f 51/3/3 52/6/6 11/5/5 30/2/2
f 10/8/8 55/7/7 51/3/3 27/4/4
f 55/7/7 9/9/9 52/6/6 51/3/3
f 29/13/13 53/12/12 32/11/11 4/10/10
f 53/12/12 54/15/15 12/14/14 32/11/11
f 11/5/5 52/6/6 53/12/12 29/13/13
f 52/6/6 9/9/9 54/15/15 53/12/12
f 1/17/19 25/9/18 56/7/17 57/16/16
f 11/19/5 1/17/19 57/16/16 30/18/20
f 57/16/24 56/7/23 23/8/22 47/20/21
f 30/18/25 57/16/24 47/20/21 2/21/1
f 5/15/27 25/9/18 1/17/19 3/22/26
f 15/14/29 5/15/27 3/22/26 36/23/28
f 3/22/26 1/17/19 11/19/5 29/24/13
f 36/23/28 3/22/26 29/24/13 4/25/30
f 32/4/32 50/3/31 36/2/28 4/1/30
f 50/3/31 49/6/34 15/5/33 36/2/28
f 12/8/36 33/7/35 50/3/31 32/4/32
f 33/7/35 14/9/37 49/6/34 50/3/31
f 35/13/41 43/12/40 38/11/39 6/10/38
f 43/12/40 37/15/43 16/14/42 38/11/39
f 15/5/33 49/6/34 43/12/45 35/13/44
f 49/6/34 14/9/37 37/15/46 43/12/45
f 13/6/48 25/9/18 5/15/27 7/12/47
f 19/5/51 13/6/48 7/12/50 42/13/49
f 34/12/53 28/15/52 10/14/8 27/11/4
f 7/12/47 5/15/27 15/14/29 35/11/54
f 42/13/49 7/12/50 35/11/41 6/10/38
f 23/5/22 40/6/55 34/12/53 47/13/21
f 56/7/17 25/9/18 13/6/48 21/3/56
f 23/8/22 56/7/23 21/3/58 48/4/57
f 38/4/39 31/3/59 42/2/49 6/1/38
f 31/3/59 17/6/60 19/5/51 42/2/49
f 16/8/42 46/7/61 31/3/61 38/4/39
f 46/7/61 18/9/62 17/6/62 31/3/61
f 41/13/66 39/12/65 44/11/64 8/10/63
f 39/12/65 26/15/68 20/14/67 44/11/64
f 19/5/51 17/6/60 39/12/65 41/13/66
f 17/6/62 18/9/62 26/15/68 39/12/65
f 21/3/56 13/6/48 19/5/51 41/2/66
f 48/4/57 21/3/58 41/2/70 8/1/69
f 47/13/21 34/12/53 27/11/4 2/10/1
f 24/7/73 22/9/72 40/6/55 45/3/71
f 20/8/67 24/7/73 45/3/71 44/4/64
f 45/3/71 40/6/55 23/5/22 48/2/57
f 40/6/55 22/9/72 28/15/52 34/12/53
f 44/4/74 45/3/71 48/2/57 8/1/69
f 14/9/75 33/7/75 12/14/75 54/15/75 9/9/75 55/7/75 10/14/75 28/15/75 22/9/75 24/7/75 20/14/75 26/15/75 18/9/75 46/7/75 16/14/75 37/15/75

